<mxfile host="app.diagrams.net" agent="Mozilla/5.0 (Windows NT 10.0; Win64; x64) AppleWebKit/537.36 (KHTML, like Gecko) Chrome/128.0.0.0 Safari/537.36 Edg/128.0.0.0" version="24.7.14">
  <diagram id="R2lEEEUBdFMjLlhIrx00" name="Page-1">
    <mxGraphModel dx="208" dy="127" grid="1" gridSize="10" guides="1" tooltips="1" connect="1" arrows="1" fold="1" page="1" pageScale="1" pageWidth="1654" pageHeight="2336" math="0" shadow="0" extFonts="Permanent Marker^https://fonts.googleapis.com/css?family=Permanent+Marker">
      <root>
        <mxCell id="0" />
        <mxCell id="1" parent="0" />
        <mxCell id="Z8_CV3bRLPhnwVzxl09v-1" value="MENNESKE" style="rounded=0;whiteSpace=wrap;html=1;" parent="1" vertex="1">
          <mxGeometry x="301" y="363" width="120" height="60" as="geometry" />
        </mxCell>
        <mxCell id="tpqS8l1BTnKntp3pgXFN-16" style="rounded=0;orthogonalLoop=1;jettySize=auto;html=1;exitX=0.5;exitY=1;exitDx=0;exitDy=0;entryX=0.25;entryY=0;entryDx=0;entryDy=0;strokeColor=default;endArrow=none;endFill=0;" edge="1" parent="1" source="tpqS8l1BTnKntp3pgXFN-1" target="Z8_CV3bRLPhnwVzxl09v-1">
          <mxGeometry relative="1" as="geometry" />
        </mxCell>
        <mxCell id="tpqS8l1BTnKntp3pgXFN-1" value="&lt;u&gt;Pers.nr&lt;/u&gt;" style="ellipse;whiteSpace=wrap;html=1;" vertex="1" parent="1">
          <mxGeometry x="158" y="250" width="120" height="40" as="geometry" />
        </mxCell>
        <mxCell id="tpqS8l1BTnKntp3pgXFN-14" style="edgeStyle=orthogonalEdgeStyle;rounded=0;orthogonalLoop=1;jettySize=auto;html=1;exitX=0.5;exitY=1;exitDx=0;exitDy=0;entryX=0.5;entryY=0;entryDx=0;entryDy=0;endArrow=none;endFill=0;" edge="1" parent="1" source="tpqS8l1BTnKntp3pgXFN-3" target="Z8_CV3bRLPhnwVzxl09v-1">
          <mxGeometry relative="1" as="geometry">
            <Array as="points">
              <mxPoint x="348" y="363" />
            </Array>
          </mxGeometry>
        </mxCell>
        <mxCell id="tpqS8l1BTnKntp3pgXFN-3" value="Navn" style="ellipse;whiteSpace=wrap;html=1;" vertex="1" parent="1">
          <mxGeometry x="288" y="250" width="120" height="40" as="geometry" />
        </mxCell>
        <mxCell id="tpqS8l1BTnKntp3pgXFN-4" value="Fornavn" style="ellipse;whiteSpace=wrap;html=1;" vertex="1" parent="1">
          <mxGeometry x="218" y="170" width="120" height="40" as="geometry" />
        </mxCell>
        <mxCell id="tpqS8l1BTnKntp3pgXFN-5" value="Etternavn" style="ellipse;whiteSpace=wrap;html=1;" vertex="1" parent="1">
          <mxGeometry x="361" y="170" width="120" height="40" as="geometry" />
        </mxCell>
        <mxCell id="tpqS8l1BTnKntp3pgXFN-15" style="rounded=0;orthogonalLoop=1;jettySize=auto;html=1;exitX=0.5;exitY=1;exitDx=0;exitDy=0;entryX=0.75;entryY=0;entryDx=0;entryDy=0;endArrow=none;endFill=0;" edge="1" parent="1">
          <mxGeometry relative="1" as="geometry">
            <mxPoint x="471" y="290" as="sourcePoint" />
            <mxPoint x="384" y="363.0000000000002" as="targetPoint" />
          </mxGeometry>
        </mxCell>
        <mxCell id="tpqS8l1BTnKntp3pgXFN-6" value="FÃ¸dselsdato" style="ellipse;whiteSpace=wrap;html=1;" vertex="1" parent="1">
          <mxGeometry x="418" y="250" width="120" height="40" as="geometry" />
        </mxCell>
        <mxCell id="tpqS8l1BTnKntp3pgXFN-9" style="rounded=0;orthogonalLoop=1;jettySize=auto;html=1;exitX=0.5;exitY=1;exitDx=0;exitDy=0;entryX=0.263;entryY=0.053;entryDx=0;entryDy=0;entryPerimeter=0;endArrow=none;endFill=0;" edge="1" parent="1" source="tpqS8l1BTnKntp3pgXFN-4" target="tpqS8l1BTnKntp3pgXFN-3">
          <mxGeometry relative="1" as="geometry" />
        </mxCell>
        <mxCell id="tpqS8l1BTnKntp3pgXFN-10" style="rounded=0;orthogonalLoop=1;jettySize=auto;html=1;exitX=0.5;exitY=1;exitDx=0;exitDy=0;entryX=0.5;entryY=0;entryDx=0;entryDy=0;endArrow=none;endFill=0;" edge="1" parent="1" source="tpqS8l1BTnKntp3pgXFN-5" target="tpqS8l1BTnKntp3pgXFN-3">
          <mxGeometry relative="1" as="geometry">
            <mxPoint x="423" y="211" as="sourcePoint" />
            <mxPoint x="361.28" y="250" as="targetPoint" />
          </mxGeometry>
        </mxCell>
        <mxCell id="tpqS8l1BTnKntp3pgXFN-20" style="rounded=0;orthogonalLoop=1;jettySize=auto;html=1;exitX=0.5;exitY=1;exitDx=0;exitDy=0;entryX=1;entryY=0;entryDx=0;entryDy=0;endArrow=none;endFill=0;" edge="1" parent="1">
          <mxGeometry relative="1" as="geometry">
            <mxPoint x="587" y="290" as="sourcePoint" />
            <mxPoint x="400" y="363.0000000000002" as="targetPoint" />
          </mxGeometry>
        </mxCell>
        <mxCell id="tpqS8l1BTnKntp3pgXFN-17" value="alder" style="ellipse;whiteSpace=wrap;html=1;dashed=1;" vertex="1" parent="1">
          <mxGeometry x="548" y="250" width="120" height="40" as="geometry" />
        </mxCell>
      </root>
    </mxGraphModel>
  </diagram>
</mxfile>
